<svg width="125" height="116" viewBox="0 0 125 116" fill="none" xmlns="http://www.w3.org/2000/svg">
<rect x="6" y="2" width="112" height="112" rx="22" fill="#007328" stroke="#007328" stroke-width="2.13333"/>
<rect width="100" height="100" rx="50" transform="matrix(-1 0 0 1 112.041 8.36816)" fill="white"/>
<rect width="107.5" height="14.5" transform="matrix(-1 0 0 1 116.041 37.8682)" fill="#007328"/>
<rect width="83.25" height="16.5" transform="matrix(-1 0 0 1 104.041 36.8682)" fill="#007328"/>
<path d="M62.1661 31.8682L8.58081 37.8682H115.751L62.1661 31.8682Z" fill="#007328"/>
<path d="M62.1661 58.3682L115.751 52.3682L8.58081 52.3682L62.1661 58.3682Z" fill="#007328"/>
<path d="M72.0411 44.9932C72.0411 49.2043 75.455 52.6182 79.6661 52.6182C83.8773 52.6182 87.2911 49.2043 87.2911 44.9932C87.2911 40.782 83.8773 37.3682 79.6661 37.3682C75.455 37.3682 72.0411 40.782 72.0411 44.9932Z" fill="white"/>
<path d="M35.5411 44.9932C35.5411 49.2043 38.955 52.6182 43.1661 52.6182C47.3773 52.6182 50.7911 49.2043 50.7911 44.9932C50.7911 40.782 47.3773 37.3682 43.1661 37.3682C38.955 37.3682 35.5411 40.782 35.5411 44.9932Z" fill="white"/>
<path d="M31.0936 90.4932C32.8436 94.2432 45.7787 91.9932 62.9686 91.9932C80.1585 91.9932 94.1755 94.2432 92.9686 90.4932C89.4686 79.6182 79.5335 66.8682 62.3436 66.8682C45.1537 66.8682 36.3436 77.6182 31.0936 90.4932Z" fill="#007328"/>
<path d="M31.0936 90.4932C32.8436 94.2432 45.7787 91.9932 62.9686 91.9932C80.1585 91.9932 94.1755 94.2432 92.9686 90.4932C89.4686 79.6182 79.5335 66.8682 62.3436 66.8682C45.1537 66.8682 36.3436 77.6182 31.0936 90.4932Z" fill="#007328"/>
<path d="M35.7911 87.9992C37.2672 90.7977 48.1774 89.1186 62.6763 89.1186C77.1752 89.1186 88.9979 90.7977 87.98 87.9992C85.0279 79.8833 76.648 70.3682 62.1491 70.3682C47.6502 70.3682 40.2193 78.3907 35.7911 87.9992Z" fill="white"/>
<path d="M87.5411 83.8682C87.5411 81.7971 85.8622 80.1182 83.7911 80.1182H40.7911C38.7201 80.1182 37.0411 81.7971 37.0411 83.8682V83.8682H87.5411V83.8682Z" fill="#007328"/>
<path d="M83.5411 79.8682C83.5411 77.521 81.6383 75.6182 79.2911 75.6182V75.6182V90.8682H83.5411V79.8682Z" fill="#007328"/>
<path d="M44.7911 75.8682V75.8682C42.4439 75.8682 40.5411 77.771 40.5411 80.1182V90.3682H44.7911V75.8682Z" fill="#007328"/>
<rect width="4.25" height="20.5" transform="matrix(-1 0 0 1 70.7911 70.3682)" fill="#007328"/>
<rect width="4.25" height="20.5" transform="matrix(-1 0 0 1 57.5411 70.3682)" fill="#007328"/>
</svg>
